<?xml version="1.0" encoding="utf-8"?><svg viewBox="0 0 63 52" xmlns="http://www.w3.org/2000/svg" xmlns:xlink="http://www.w3.org/1999/xlink"><style>:root>svg{display:none}:root>svg:target{display:block}</style><svg viewBox="0 0 7 12" id="ico_arrow-up" xmlns="http://www.w3.org/2000/svg"><path d="M3.5 1L1 3.353M3.5 1L6 3.353M3.5 1v10" stroke="#141312" stroke-linecap="round" stroke-linejoin="round"/></svg><svg viewBox="0 0 63 52" id="ico_logo" xmlns="http://www.w3.org/2000/svg"><path d="M7.9 48.483c-.081-.973-.661-1.928-2.257-2.01.983-.13 2.337-2.397 1.757-4.082-.484-1.361-1.935-.827-2.79-.567-.16 1.296.21 3.677-1.224 3.985-.065-.68.064-1.814-.113-2.997-.339-1.96-2.725-1.053-3.273-.81.21 2.17.177 2.754.177 5.363.017.89-.08 2.3 0 3.062.226 2.025 2.628 1.49 3.29.794 0-.86-.017-2.609-.065-3.581 1.064-.081 1.257.227 1.29 2.495.016 2.268 2.692 1.847 3.482 1.07-.274-.843-.194-1.913-.274-2.722zM9.298 46.814c0 4.698 2.418 5.087 4.111 5.038 1.564 0 4.127-.437 4.143-5.038-.016-3.937-1.757-5.33-4.095-5.33-2.466 0-4.159 1.522-4.159 5.33zm4.16-2.69c.177 0 .854-.259.854 2.576 0 1.847-.29 2.9-.87 2.9-.484 0-.871-.437-.823-2.9 0-2.236.564-2.576.838-2.576zM20.87 44.465c0 .923-.017 1.944.031 5.087.017 1.264.065 2.3 1.516 2.268 1.29 0 1.612-.518 1.757-.68.049-1.41-.048-4.488-.08-6.627.354 0 .693 0 1-.016 1.03-.032 1.386-.648 1.37-1.507-.017-.972-.807-1.49-1.903-1.49h-3.063c-2.434.016-2.596.016-2.789 0-.451 1.911-.177 2.932 1.677 2.965h.483zM33.104 41.564c-1.129-.113-3.853-.064-5.74.017.21 2.154.226 4.925.194 6.885.032 1.88-.129 3.192 1.838 3.322 1.29.097 2.015.097 3.176 0 1.58-.13 2.224-.989 1.467-2.868-1.306.194-2.515.243-3.273.097 0-.227-.032-.94 0-1.118.726 0 1.516-.032 2.209-.032 1.435 0 1.29-2.317-.016-2.317-.935-.049-1.355.049-2.225-.032v-1.28c.983-.081 1.419-.033 2.24 0 1.549.048 1.549-2.35.13-2.674zM38.14 38.032c-1.064.697-1 1.75-.242 2.382.854.616 2.53.421 3.66-.081 1.031-.47 1.434-1.54.338-2.333-1.628.859-2.708.421-3.756.032zm5.739 4.91c0-.973-.613-1.442-1.58-1.442-1.129 0-1.709.291-2.047 1.328-.404 1.264-1 3.208-1.339 4.553 0-.584.097-4.018.097-4.44 0-1.069-.564-1.441-1.515-1.441-.661 0-1.838.42-1.838.42.097.73.177 1.151.194 2.107.032 1.005 0 2.608.096 5.784.048 1.555.548 2.074 1.806 2.025 2.257-.08 2.402-4.26 3.014-5.784 0 .697-.032 3.11-.032 3.921 0 1.102.097 1.863 1.37 1.863 1.097 0 1.726-.372 1.919-.713-.129-.486-.177-3.434-.177-5.751 0-1.021.016-1.912.032-2.43zM53.218 48.483c-.08-.973-.66-1.928-2.257-2.01.984-.13 2.338-2.397 1.758-4.082-.484-1.361-1.935-.827-2.79-.567-.16 1.296.21 3.677-1.224 3.985-.065-.68.064-1.814-.113-2.997-.339-1.96-2.725-1.053-3.273-.81.21 2.17.177 2.754.177 5.363.017.89-.08 2.3 0 3.062.226 2.025 2.628 1.49 3.29.794 0-.86-.017-2.609-.065-3.581 1.064-.081 1.257.227 1.29 2.495.015 2.268 2.692 1.847 3.481 1.07-.274-.843-.193-1.913-.274-2.722zM63 51.14c-.226-.632-.21-.94-.258-1.848-.129-2.365-.161-4.65-.935-6.22-1.306-2.318-4.675-1.686-6.303-.52-.145 2.803-.629 3.954-.935 7.08-.226 2.285 1.676 2.917 3.45 1.8 0-.276 0-1.232.08-1.459.21 0 1 .016 1.306.016 0 0-.08.94.37 1.442.807.924 2.66.648 3.225-.291zm-4.788-3.192c.113-.875.113-2.69.161-3.078.08-.065.63-.033.694.048.193.762.193 2.155.241 3.03h-1.096z" fill="#1A212F"/><path d="M39 6.995L45.576.42C46.47-.476 48 .158 48 1.423v17.573c0-5.7-4.513-9.166-9-12z" fill="#FF7236"/><path d="M48 18.997c0 8.837-7.163 16.001-16 16.001-8.836 0-16-7.164-16-16.001 0-8.838 7.164-15.002 16-15.002 8.837 0 16 6.164 16 15.002z" fill="#FFAA50"/><path d="M25 18.996c0-7.701 4.422-13.37 10.31-14.7A18.328 18.328 0 0032 3.995c-2.944 0-5.694.697-8.063 1.937L18.424.419C17.53-.476 16 .158 16 1.423v17.573c0-.36 0-.358 0 0 0 8.838 7.163 16.002 16 16.002 1.135 0 2.242-.122 3.31-.347C29.422 33.125 25 26.698 25 18.996z" fill="#FF7236"/><path d="M28.5 28.997c1.933 0 3.5-1.343 3.5-3s-1.567-3-3.5-3-3.5 1.343-3.5 3 1.567 3 3.5 3zM35.5 28.997c1.933 0 3.5-1.343 3.5-3s-1.567-3-3.5-3-3.5 1.343-3.5 3 1.567 3 3.5 3z" fill="#FFFDFB"/><path d="M32 25.998a2 2 0 100-4 2 2 0 000 4z" fill="#FF913C"/><path d="M26 19.997a1 1 0 01-1-1v-1a1 1 0 112 0v1a1 1 0 01-1 1zM38 19.997a1 1 0 01-1-1v-1a1 1 0 112 0v1a1 1 0 01-1 1z" fill="#1A212F"/></svg><svg viewBox="0 0 16 12" id="ico_option-box" xmlns="http://www.w3.org/2000/svg"><path d="M15.995 3.362C15.903 1.477 14.458 0 12.705 0h-9.41C1.542 0 .097 1.477.005 3.362.002 3.425 0 10.377 0 10.377 0 11.272.675 12 1.505 12h12.99c.83 0 1.505-.728 1.505-1.623 0 0-.002-6.952-.005-7.015zM3.295.75h9.41c1.258 0 2.315.964 2.55 2.257h-.715c-.224-.885-.966-1.507-1.835-1.507H8.148c-.192 0 .348.168.348.375s-.54.375-.348.375h4.557c.483 0 .905.304 1.098.757h-.347c-.867 0-1.579.734-1.627 1.657a11.937 11.937 0 00-3.83-.621c-1.306 0-2.612.207-3.828.62-.048-.922-.76-1.656-1.628-1.656h-.346c.192-.453.614-.757 1.098-.757h4.853c.192 0 .348-.168.348-.375S8.34 1.5 8.148 1.5H3.295c-.869 0-1.611.622-1.835 1.507H.745C.98 1.714 2.037.75 3.295.75zm8.531 4.702v1.273c0 .556-.42 1.008-.935 1.008H5.11c-.516 0-.935-.452-.935-1.008V5.452c2.414-.88 5.238-.88 7.652 0zm3.478 4.925c0 .481-.363.873-.809.873H1.505c-.446 0-.81-.392-.81-.873V3.757h1.848c.516 0 .935.452.935 1.008v1.96c0 .97.732 1.758 1.63 1.758h6.32c.4 0 1.094-.474 1.094-1.758v-1.96c0-.556.419-1.008.934-1.008h1.848v6.62z"/></svg><svg viewBox="0 0 14 16" id="ico_option-claw" xmlns="http://www.w3.org/2000/svg"><path d="M13.228 13.612H8.897V2.388h1.694v4.44c-.51.118-.891.599-.891 1.172 0 .662.509 1.2 1.135 1.2S11.97 8.662 11.97 8c0-.573-.382-1.054-.89-1.172v-4.44h1.488c.425 0 .772-.366.772-.816V.816c0-.45-.347-.816-.773-.816H1.433C1.007 0 .66.366.66.816v.756c0 .45.347.816.773.816h3.67v11.224H.773c-.427 0-.773.366-.773.816v.755c0 .45.346.817.772.817h12.456c.426 0 .772-.366.772-.816v-.756c0-.45-.346-.816-.772-.816zM11.482 8c0 .377-.29.684-.647.684-.357 0-.647-.307-.647-.684 0-.377.29-.684.647-.684.357 0 .647.307.647.684zM1.432 1.572V.816c0-.165.24-.222.396-.222h10.575c.157 0 .284.057.284.222v.756c0 .165-.127.21-.284.21H1.828c-.157 0-.395-.045-.395-.21zM5.735 11.78h.274s.244-.115.244-.258a.251.251 0 00-.244-.258h-.274V9.432H8.31c.135 0 .96-.147.312-.29.648-.142-.177-.226-.312-.226H5.734V7.084h2.258c.135 0-.244-.115-.244-.258 0-.143.379-.258.244-.258H5.734v-4.18H8.31V4.22H5.521c-.134 0 0-.027 0 .115 0 .401-.142.401-.142.401H8.31v1.832h-.318a.251.251 0 00-.244.258c0 .143.11.258.244.258h.318v4.18H6.008c-.135 0 .244.115.244.258 0 .143-.379.258-.244.258H8.31v1.832H5.734V11.78zm7.669 3.404c0 .165-.246.207-.403.207H.91c-.158 0-.285-.042-.285-.207v-.756c0-.165.127-.21.284-.21h12.21c.156 0 .284.045.284.21v.756z"/></svg><svg viewBox="0 0 16 16" id="ico_option-clew" xmlns="http://www.w3.org/2000/svg"><path d="M14.528 13.054H10.49a7 7 0 003.5-6.058A7.004 7.004 0 006.997 0 7.004 7.004 0 000 6.996a7.004 7.004 0 006.996 6.996h7.532a.536.536 0 010 1.07H8A.469.469 0 108 16h6.528a1.472 1.472 0 100-2.946zm-7.532 0c-.262 0-.52-.017-.774-.05l5.122-2.956.646.373a6.056 6.056 0 01-4.994 2.633zM3.598 12.01L9.17 8.792l1.236.714-5.5 3.176a6.043 6.043 0 01-1.308-.673zm-.482-9.663a6.075 6.075 0 011.237-.8V7.98l-1.237.714V2.346zm2.175-1.164c.396-.116.81-.194 1.236-.227v5.77l-1.236.714V1.182zm7.763 5.814c0 .147-.005.292-.016.437L7.465 4.215V2.787l5.5 3.176c.059.336.09.68.09 1.033zm-5.59-1.699l5.42 3.129c-.1.412-.243.809-.423 1.184L7.465 6.725V5.297zm5.122-.636L7.465 1.704V.955a6.072 6.072 0 015.121 3.706zM2.18 3.326v5.91l-.648.374a6.022 6.022 0 01-.593-2.614c0-1.379.463-2.65 1.241-3.67zm-.178 7.095l4.995-2.884 1.236.714-5.415 3.127A6.109 6.109 0 012 10.42z"/></svg><svg viewBox="0 0 16 16" id="ico_option-house" xmlns="http://www.w3.org/2000/svg"><path d="M15.863 7.167L9.189.492A1.67 1.67 0 008 0c-.45 0-.871.175-1.188.492L.137 7.167a.468.468 0 000 .663l.503.501c.53.531 1.26.656 1.87.477v6.723c0 .26.21.469.47.469h10.04c.26 0 .47-.21.47-.469V8.808c.61.18 1.34.054 1.87-.477l.503-.501a.47.47 0 000-.663zm-3.31 1.027v4.86h-2.076v-3.046A2.475 2.475 0 008 7.531a2.475 2.475 0 00-2.477 2.477v3.046H3.448v-4.86L8 3.642l4.552 4.552zm-9.105 5.798h2.075v1.07H3.448v-1.07zm3.012 1.07v-5.054a1.538 1.538 0 113.08 0v5.055H6.46zm4.017 0v-1.07h2.075v1.07h-2.075zm4.22-7.393a.95.95 0 01-1.345 0l-.009-.01-5.012-5.011a.469.469 0 00-.662 0L2.657 7.66a.95.95 0 01-1.354.009l-.171-.171 6.343-6.343c.29-.29.76-.29 1.05 0l6.343 6.343-.17.17z"/></svg><svg viewBox="0 0 16 16" id="ico_option-no" xmlns="http://www.w3.org/2000/svg"><path d="M16 8a7.948 7.948 0 01-2.343 5.657A7.948 7.948 0 018 16a7.948 7.948 0 01-4.172-1.171l.917-.918A6.708 6.708 0 008 14.75 6.758 6.758 0 0014.75 8c0-1.18-.305-2.29-.838-3.255l.917-.917A7.948 7.948 0 0116 8zM.91 15.973l-.883-.884 1.891-1.891A7.94 7.94 0 010 8c0-2.137.832-4.146 2.343-5.657A7.948 7.948 0 018 0a7.94 7.94 0 015.198 1.918L15.089.027l.884.884L.911 15.973zm1.898-3.665l9.5-9.5A6.719 6.719 0 008 1.25 6.758 6.758 0 001.25 8c0 1.636.586 3.139 1.558 4.308z"/></svg><svg viewBox="0 0 21 18" id="ico_paw" xmlns="http://www.w3.org/2000/svg"><path d="M16.425 6.662c-2.8 1.606-2.323 6.293.714 6.293 1.31 0 2.444-.985 2.948-2.244 1.166-2.907-1.258-5.428-3.662-4.049zM13.55 7.243c3.359 0 4.365-5.705 1.173-6.643-1.454-.427-3.107.598-3.638 2.472-.596 2.1.576 4.17 2.465 4.17z"/><path d="M12.685 17.396c-.466-.129-1.294-.212-2.16-.224-.917-.013-1.876.053-2.497.224-1.676.467-3.956-.662-3.456-3.008.463-2.17 2.126-2.046 2.52-4.101.395-2.078 1.935-3.08 3.432-3.002 1.386.073 2.734 1.072 3.101 3.002.391 2.057 2.05 1.932 2.513 4.1.502 2.349-1.783 3.472-3.453 3.01zM7.637 7.243c.95 0 1.766-.552 2.22-1.397C11.205 3.335 8.99-.142 6.463.602c-3.197.94-2.183 6.64 1.174 6.64z"/><path d="M6.119 11.087C7.197 8.448 4.64 5.224 2.199 6.24c-2.941 1.221-1.644 6.49 1.59 6.49 1.038 0 1.92-.638 2.33-1.642zM12.685 17.396c-.466-.129-1.294-.212-2.16-.224V7.285c1.385.073 2.733 1.072 3.1 3.002.391 2.057 2.05 1.932 2.513 4.1.502 2.348-1.783 3.472-3.453 3.01z"/></svg><svg fill="none" viewBox="0 0 14 8" id="ico_up" xmlns="http://www.w3.org/2000/svg"><path d="M13 7L7 1 1 7" stroke="#1A212F" stroke-width="2" stroke-linecap="round" stroke-linejoin="round"/></svg></svg>